<svg width="53" height="52" viewBox="0 0 53 52" fill="none" xmlns="http://www.w3.org/2000/svg">
<path d="M33.1869 12.4238C33.6116 12.4691 33.9501 12.6639 34.2191 12.8691C34.5034 13.0861 34.8081 13.3937 35.1215 13.707L38.7933 17.3789C39.1066 17.6921 39.4144 17.997 39.6312 18.2812C39.8657 18.5886 40.0863 18.9865 40.0863 19.5C40.0863 20.0135 39.8657 20.4114 39.6312 20.7188C39.4144 21.003 39.1066 21.3079 38.7933 21.6211L21.099 39.3154C20.9419 39.4725 20.7377 39.6886 20.474 39.8379C20.2105 39.987 19.9209 40.0506 19.7054 40.1045L12.3842 41.9346C12.2363 41.9715 12.0149 42.0298 11.8207 42.0488C11.614 42.069 11.1621 42.0756 10.7933 41.707C10.4246 41.3383 10.4313 40.8864 10.4515 40.6797C10.4705 40.4854 10.5288 40.2631 10.5658 40.1152L12.3959 32.7949C12.4498 32.5794 12.5132 32.2891 12.6625 32.0254C12.8118 31.7618 13.0279 31.5584 13.1849 31.4014L30.8783 13.707C31.1916 13.3938 31.4964 13.0861 31.7806 12.8691C32.088 12.6346 32.4867 12.4141 33.0004 12.4141L33.1869 12.4238Z" stroke="#FE554A" stroke-width="2"/>
</svg>
