<svg width="122" height="40" viewBox="0 0 122 40" fill="none" xmlns="http://www.w3.org/2000/svg">
<path d="M0 18.3193H5.59979C7.31918 18.3193 8.65336 18.7609 9.60232 19.6535C10.5419 20.5461 11.0117 21.7299 11.0117 23.1863C11.0117 24.652 10.5419 25.8264 9.60232 26.719C8.65336 27.6116 7.31918 28.0532 5.59979 28.0532H3.36363V31.7927H0L0 18.3193ZM3.35423 25.3754H5.24275C5.94742 25.3754 6.52995 25.1687 6.98094 24.7459C7.42254 24.3325 7.64803 23.8158 7.64803 23.1957C7.65743 22.5756 7.43193 22.0494 6.99034 21.6266C6.53935 21.2038 5.95682 20.9877 5.24275 20.9877H3.35423V25.3754Z" fill="#1D1D1D"/>
<path d="M12.6653 31.7927V17.361H15.8222V31.7927H12.6653Z" fill="#1D1D1D"/>
<path d="M22.2206 21.0441C23.8743 21.0441 25.1709 21.6266 25.744 22.6131L25.8755 21.2132H28.8915V31.7927H25.8755L25.744 30.3833C25.1896 31.4262 24.0152 31.9524 22.2206 31.9524C19.5053 32.0088 17.2503 29.6786 17.2879 26.5029C17.2503 23.3272 19.5053 20.9877 22.2206 21.0441ZM21.2153 28.5042C21.7227 29.0209 22.3522 29.284 23.0944 29.284C23.8367 29.284 24.4662 29.0209 24.9829 28.5042C25.4903 27.9874 25.744 27.3203 25.744 26.5029C25.744 25.6855 25.4903 25.009 24.9829 24.4923C24.4662 23.9755 23.8367 23.7218 23.0944 23.7218C22.3522 23.7218 21.7227 23.9755 21.2153 24.4923C20.7079 25.009 20.4543 25.6855 20.4543 26.5029C20.4543 27.3203 20.7079 27.9874 21.2153 28.5042Z" fill="#1D1D1D"/>
<path d="M31.9357 21.2132V18.8455H35.0832V21.2132H37.5825V23.6654H35.0832V27.8935C35.0832 28.6357 35.3651 29.0773 35.9382 29.1995C36.3798 29.3404 36.9248 29.3404 37.5825 29.2089V31.7927C36.8778 31.896 36.1919 31.9524 35.5436 31.9524C34.247 31.9524 33.3262 31.6329 32.7719 30.994C32.2176 30.3551 31.9357 29.3592 31.9357 28.0062V23.6654H30.5733V21.2132H31.9357Z" fill="#1D1D1D"/>
<path d="M44.3285 21.0441C46.0479 21.0441 47.5324 21.6548 48.5565 22.7165C49.5713 23.7782 50.1256 25.4506 49.9847 27.4049H41.7917C41.9514 28.0344 42.2709 28.5418 42.7313 28.9176C43.1916 29.2934 43.7272 29.4813 44.3285 29.4813C45.3996 29.4813 46.1982 28.9646 46.715 27.9311L49.4021 29.237C48.9136 30.092 48.2183 30.7591 47.3069 31.2383C46.3955 31.7175 45.409 31.9524 44.3285 31.9524C42.7594 31.9524 41.3219 31.4356 40.2602 30.5242C39.1985 29.6129 38.522 28.1847 38.522 26.5029C38.522 24.8211 39.1985 23.3836 40.2602 22.4722C41.3219 21.5702 42.7594 21.0441 44.3285 21.0441ZM45.9821 24.0695C45.5312 23.703 44.9768 23.5151 44.3285 23.5151C43.6708 23.5151 43.1165 23.703 42.6749 24.0695C42.2239 24.4359 41.9232 24.9526 41.7823 25.6009H46.8747C46.7244 24.9526 46.4237 24.4453 45.9821 24.0695Z" fill="#1D1D1D"/>
<path d="M59.6716 24.4547L67.592 18.1596V31.7927H64.2284V24.8399L59.6716 28.7015L55.0959 24.8399V31.7927H51.7323V18.1596L59.6716 24.4547Z" fill="#1D1D1D"/>
<path d="M74.2348 21.0441C75.8884 21.0441 77.185 21.6266 77.7581 22.6131L77.8896 21.2132H80.9056V31.7927H77.8896L77.7581 30.3833C77.2038 31.4262 76.0293 31.9524 74.2348 31.9524C71.5194 32.0088 69.2645 29.6786 69.3021 26.5029C69.2645 23.3272 71.5194 20.9877 74.2348 21.0441ZM73.2294 28.5042C73.7368 29.0209 74.3663 29.284 75.1085 29.284C75.8508 29.284 76.4803 29.0209 76.9971 28.5042C77.5044 27.9874 77.7581 27.3203 77.7581 26.5029C77.7581 25.6855 77.5044 25.009 76.9971 24.4923C76.4803 23.9755 75.8508 23.7218 75.1085 23.7218C74.3663 23.7218 73.7368 23.9755 73.2294 24.4923C72.7221 25.009 72.4684 25.6855 72.4684 26.5029C72.4684 27.3203 72.7221 27.9874 73.2294 28.5042Z" fill="#1D1D1D"/>
<path d="M83.9498 21.2132V18.8455H87.0974V21.2132H89.5966V23.6654H87.0974V27.8935C87.0974 28.6357 87.3792 29.0773 87.9523 29.1995C88.3939 29.3404 88.9389 29.3404 89.5966 29.2089V31.7927C88.8919 31.896 88.206 31.9524 87.5577 31.9524C86.2611 31.9524 85.3404 31.6329 84.786 30.994C84.2317 30.3551 83.9498 29.3592 83.9498 28.0062V23.6654H82.5875V21.2132H83.9498Z" fill="#1D1D1D"/>
<path d="M96.3426 21.0441C98.062 21.0441 99.5465 21.6548 100.571 22.7165C101.585 23.7782 102.14 25.4506 101.999 27.4049H93.8058C93.9656 28.0344 94.285 28.5418 94.7454 28.9176C95.2058 29.2934 95.7413 29.4813 96.3426 29.4813C97.4137 29.4813 98.2124 28.9646 98.7291 27.9311L101.416 29.237C100.928 30.092 100.232 30.7591 99.321 31.2383C98.4097 31.7175 97.4231 31.9524 96.3426 31.9524C94.7736 31.9524 93.336 31.4356 92.2743 30.5242C91.2126 29.6129 90.5361 28.1847 90.5361 26.5029C90.5361 24.8211 91.2126 23.3836 92.2743 22.4722C93.336 21.5702 94.7736 21.0441 96.3426 21.0441ZM97.9963 24.0695C97.5453 23.703 96.9909 23.5151 96.3426 23.5151C95.6849 23.5151 95.1306 23.703 94.689 24.0695C94.238 24.4359 93.9374 24.9526 93.7964 25.6009H98.8888C98.7385 24.9526 98.4379 24.4453 97.9963 24.0695Z" fill="#1D1D1D"/>
<path d="M115.617 5.29932C114.837 5.06287 113.803 4.89401 113.29 4.90942C112.401 4.93456 112.381 4.91826 111.738 3.51069C111.394 2.73071 110.804 1.71515 110.413 1.2856C109.135 -0.204367 106.576 -0.430489 104.444 0.771295C103.843 1.10453 103.27 1.11097 102.349 0.800329C99.7684 -0.0647411 96.2486 1.03415 94.4689 3.25553C93.0111 5.07517 92.8481 6.61301 93.7814 10.0768C94.1902 11.5683 94.1924 12.1909 93.746 13.5405C92.9625 15.978 93.4172 16.5363 96.2317 16.7347C98.5894 16.8777 100.33 17.4574 102.255 18.7665C103.814 19.8222 105.447 21.8289 106.06 23.4834C106.54 24.7605 106.73 23.9814 106.411 22.252C105.958 20.0653 105.247 18.952 103.315 17.4432C101.444 15.9833 99.1003 15.1142 96.6639 14.9859C95.832 14.9401 95.1178 14.8723 95.0771 14.8397C95.0364 14.8071 95.143 14.4657 95.347 14.0859C95.809 13.1757 95.8315 11.0209 95.427 9.64919C94.3512 6.07127 94.4365 5.13079 96.0572 3.44158C98.5179 0.912238 102.949 0.969932 105.551 3.5595C106.125 4.13578 106.722 4.80822 106.87 5.08208C107.038 5.3323 107.032 5.17256 106.875 4.6591C106.72 4.18558 106.014 3.23195 105.298 2.54156L104.009 1.31482L105.088 1.09331C106.501 0.789525 108.416 1.27635 108.999 2.09223C109.228 2.43129 109.91 3.83153 110.472 5.17388C111.722 8.07621 113.182 9.67297 115.138 10.1924C115.815 10.3473 116.55 10.4314 116.844 10.3565C117.235 10.2432 117.152 10.1381 116.37 9.82176C115.848 9.59756 115.079 9.09787 114.632 8.73921C113.716 8.00559 112.434 5.85305 112.657 5.44966C112.898 5.02265 114.93 5.99033 116.658 7.33611C119.341 9.40818 120.268 12.1295 119.411 15.2842C118.763 17.6361 116.189 19.2217 113.664 18.8285C112.869 18.6956 112.534 18.7379 112.799 18.9498C113.571 19.5294 115.794 19.7978 117.165 19.4215L118.517 19.0688L118.037 20.5854C117.161 23.221 115.298 24.2117 111.981 23.7654L110.015 23.5092L109.949 22.215C109.724 18.6592 107.166 15.6394 103.636 14.7905C102.798 14.585 102.881 14.6901 104.688 16.0212C107.224 17.8594 108.174 19.5514 108.356 22.452C108.433 23.5229 108.627 24.5318 108.81 24.6786C109.38 25.135 111.826 25.5429 113.344 25.4005C116.498 25.1336 118.654 22.9424 118.647 19.949C118.652 18.9833 118.798 18.6345 119.596 17.7218C121.421 15.6529 121.888 12.6514 120.821 9.89575C120.274 8.40997 119.943 7.98939 118.62 6.92972C117.604 6.15453 116.536 5.57003 115.617 5.29932Z" fill="#1D1D1D"/>
<path d="M99.088 19.2165C97.9697 18.9025 94.4061 18.7635 94.1978 19.0234C94.16 19.0707 95.159 19.3667 96.4169 19.7149C101.29 21.097 104.087 24.1527 103.476 27.5429L103.275 28.5853L103.795 27.6441C104.409 26.5447 104.542 25.8365 104.34 24.588C104.002 22.2994 101.726 20.0106 99.088 19.2165Z" fill="#1D1D1D"/>
<path d="M71.695 33.8287H73.7477C74.2152 33.8287 74.6297 33.9282 74.9978 34.1305C75.3659 34.3328 75.6511 34.6147 75.8534 34.9761C76.0557 35.3376 76.1585 35.7454 76.1585 36.2064C76.1817 37.5826 75.1437 38.6039 73.7477 38.584H71.695V33.8287ZM72.8822 37.6423H73.6017C73.9831 37.6423 74.3081 37.5063 74.5734 37.2377C74.8387 36.9691 74.9713 36.6275 74.9713 36.2064C74.9713 35.7753 74.8387 35.4271 74.5767 35.1651C74.3147 34.9032 73.9897 34.7705 73.6017 34.7705H72.8822V37.6423Z" fill="#1D1D1D"/>
<path d="M78.3106 34.7904C78.8942 34.7904 79.3519 34.996 79.5541 35.3442L79.6006 34.8501H80.665V38.584H79.6006L79.5541 38.0866C79.3585 38.4547 78.944 38.6404 78.3106 38.6404C77.3523 38.6603 76.5564 37.8379 76.5697 36.7171C76.5564 35.5962 77.3523 34.7705 78.3106 34.7904ZM77.9558 37.4234C78.1348 37.6058 78.357 37.6986 78.619 37.6986C78.881 37.6986 79.1031 37.6058 79.2855 37.4234C79.4646 37.241 79.5541 37.0056 79.5541 36.7171C79.5541 36.4286 79.4646 36.1898 79.2855 36.0074C79.1031 35.825 78.881 35.7355 78.619 35.7355C78.357 35.7355 78.1348 35.825 77.9558 36.0074C77.7767 36.1898 77.6872 36.4286 77.6872 36.7171C77.6872 37.0056 77.7767 37.241 77.9558 37.4234Z" fill="#1D1D1D"/>
<path d="M85.9376 36.0837V33.8287H87.1248V38.6404L84.2696 36.3291V38.584H83.0825V33.7724L85.9376 36.0837Z" fill="#1D1D1D"/>
<path d="M89.4726 34.7904C90.0562 34.7904 90.5138 34.996 90.7161 35.3442L90.7626 34.8501H91.827V38.584H90.7626L90.7161 38.0866C90.5205 38.4547 90.106 38.6404 89.4726 38.6404C88.5143 38.6603 87.7184 37.8379 87.7316 36.7171C87.7184 35.5962 88.5143 34.7705 89.4726 34.7904ZM89.1178 37.4234C89.2968 37.6058 89.519 37.6986 89.781 37.6986C90.043 37.6986 90.2651 37.6058 90.4475 37.4234C90.6266 37.241 90.7161 37.0056 90.7161 36.7171C90.7161 36.4286 90.6266 36.1898 90.4475 36.0074C90.2651 35.825 90.043 35.7355 89.781 35.7355C89.519 35.7355 89.2968 35.825 89.1178 36.0074C88.9387 36.1898 88.8492 36.4286 88.8492 36.7171C88.8492 37.0056 88.9387 37.241 89.1178 37.4234Z" fill="#1D1D1D"/>
<path d="M96.2739 38.584H95.1597V36.7171C95.1597 36.0704 94.9475 35.7355 94.4534 35.7355C93.9327 35.7355 93.6409 36.1102 93.6409 36.7171V38.584H92.5267V34.8501H93.5912L93.6409 35.3442C93.8499 34.9761 94.2511 34.7904 94.8381 34.7904C95.3487 34.7904 95.7168 34.9529 95.939 35.2812C96.1612 35.6095 96.2739 36.087 96.2739 36.7171V38.584Z" fill="#1D1D1D"/>
<path d="M99.7558 35.3442L99.8023 34.8501H100.867V38.3022C100.867 38.6636 100.78 38.9753 100.605 39.2373C100.429 39.496 100.19 39.6883 99.8951 39.8143C99.6 39.937 99.2617 40 98.8804 40C98.1144 40 97.5075 39.7413 97.0565 39.2274L97.5838 38.6238C97.8723 38.9488 98.2768 39.1113 98.7942 39.1146C99.0628 39.1146 99.2883 39.0383 99.474 38.8825C99.6563 38.7266 99.7525 38.5144 99.7558 38.2524V37.9706C99.5734 38.3187 99.1589 38.4912 98.5123 38.4879C97.5374 38.4879 96.7713 37.7384 96.7713 36.6574C96.7713 36.1202 96.9405 35.6758 97.2754 35.321C97.6103 34.9662 98.0215 34.7904 98.5123 34.7904C99.0959 34.7904 99.5535 34.996 99.7558 35.3442ZM98.1608 37.3173C98.3399 37.493 98.5587 37.5826 98.8207 37.5826C99.0827 37.5826 99.3015 37.493 99.4839 37.3173C99.6663 37.1415 99.7558 36.9193 99.7558 36.6574C99.7558 36.3954 99.6663 36.1765 99.4839 36.0008C99.3015 35.825 99.0827 35.7355 98.8207 35.7355C98.5587 35.7355 98.3399 35.8217 98.1608 35.9975C97.9784 36.1732 97.8889 36.3954 97.8889 36.6574C97.8889 36.9227 97.9784 37.1415 98.1608 37.3173Z" fill="#1D1D1D"/>
</svg>
