<svg width="41" height="40" viewBox="0 0 41 40" fill="none" xmlns="http://www.w3.org/2000/svg">
<path d="M20.0173 6.66752C25.7873 6.61717 31.4151 8.43964 36.0577 11.857C36.1711 11.9404 36.2277 11.9821 36.2368 12.044C36.2459 12.106 36.2032 12.1626 36.1179 12.2758L20.4853 33.0209C20.3772 33.1644 20.3232 33.2361 20.2492 33.2368C20.1752 33.2374 20.1199 33.1666 20.0093 33.0251L4.01711 12.5559C3.92984 12.4443 3.88621 12.3884 3.89419 12.3263C3.90217 12.2642 3.9581 12.2215 4.06994 12.1361C8.65228 8.63828 14.2474 6.71787 20.0173 6.66752Z" stroke="#FE554A" stroke-width="2" stroke-linecap="round"/>
<path d="M20.061 11.6673C24.7303 11.6266 29.285 13.0953 33.0485 15.8505C33.1618 15.9335 33.2185 15.975 33.2277 16.037C33.2368 16.0991 33.1942 16.1557 33.1088 16.269L20.4853 33.0209C20.3772 33.1644 20.3232 33.2361 20.2492 33.2368C20.1752 33.2374 20.1199 33.1666 20.0093 33.0251L7.09541 16.496C7.0081 16.3842 6.96445 16.3284 6.97252 16.2662C6.9806 16.2039 7.03655 16.1615 7.14846 16.0765C10.8633 13.2561 15.3917 11.7081 20.061 11.6673Z" stroke="#FE554A" stroke-width="2" stroke-linecap="round"/>
<mask id="mask0_72_192" style="mask-type:alpha" maskUnits="userSpaceOnUse" x="3" y="6" width="34" height="28">
<path d="M36.1179 12.2758C36.2032 12.1626 36.2459 12.106 36.2368 12.044C36.2277 11.9821 36.1711 11.9404 36.0578 11.857C31.4151 8.43964 25.7873 6.61717 20.0173 6.66752C14.2474 6.71787 8.65228 8.63828 4.06994 12.1361C3.9581 12.2215 3.90217 12.2642 3.89419 12.3263C3.88621 12.3884 3.92984 12.4443 4.01711 12.5559L20.0093 33.0251C20.1199 33.1666 20.1752 33.2374 20.2492 33.2368C20.3232 33.2361 20.3772 33.1644 20.4853 33.0209L36.1179 12.2758Z" fill="#33363F"/>
</mask>
<g mask="url(#mask0_72_192)">
<path fill-rule="evenodd" clip-rule="evenodd" d="M20.2501 16.6667C20.2501 17.5871 19.5039 18.3333 18.5834 18.3333C17.6629 18.3333 16.9167 17.5871 16.9167 16.6667C16.9167 15.7462 17.6629 15 18.5834 15C19.5039 15 20.2501 15.7462 20.2501 16.6667ZM30.2501 21.6667C30.2501 23.5076 28.7577 25 26.9167 25C25.0758 25 23.5834 23.5076 23.5834 21.6667C23.5834 19.8257 25.0758 18.3333 26.9167 18.3333C28.7577 18.3333 30.2501 19.8257 30.2501 21.6667ZM15.2501 28.3333C17.091 28.3333 18.5834 26.8409 18.5834 25C18.5834 23.159 17.091 21.6667 15.2501 21.6667C13.4091 21.6667 11.9167 23.159 11.9167 25C11.9167 26.8409 13.4091 28.3333 15.2501 28.3333Z" fill="#FE554A"/>
</g>
</svg>
