<svg width="41" height="40" viewBox="0 0 41 40" fill="none" xmlns="http://www.w3.org/2000/svg">
<path d="M24.5 6.6665H17C11.6967 6.6665 9.04505 6.6665 7.39752 8.34018C5.75 10.0139 5.75 12.7076 5.75 18.0951V21.9046C5.75 27.2921 5.75 29.9858 7.39752 31.6595C9.04505 33.3332 11.6967 33.3332 17 33.3332H24.5C29.8033 33.3332 32.455 33.3332 34.1025 31.6595C35.75 29.9858 35.75 27.2921 35.75 21.9046V18.0951C35.75 12.7076 35.75 10.0139 34.1025 8.34018C32.455 6.6665 29.8033 6.6665 24.5 6.6665Z" stroke="#FE554A" stroke-width="2"/>
<path d="M12.4167 13.3335H17.4167" stroke="#FE554A" stroke-width="2" stroke-linecap="round"/>
<path d="M25.75 24.6665V21.9998C25.75 21.057 25.75 20.5856 26.0429 20.2927C26.3358 19.9998 26.8072 19.9998 27.75 19.9998H33.75C34.6928 19.9998 35.1642 19.9998 35.4571 20.2927C35.75 20.5856 35.75 21.057 35.75 21.9998V24.6665C35.75 25.6093 35.75 26.0807 35.4571 26.3736C35.1642 26.6665 34.6928 26.6665 33.75 26.6665H27.75C26.8072 26.6665 26.3358 26.6665 26.0429 26.3736C25.75 26.0807 25.75 25.6093 25.75 24.6665Z" stroke="#FE554A" stroke-width="2"/>
</svg>
