<svg width="41" height="40" viewBox="0 0 41 40" fill="none" xmlns="http://www.w3.org/2000/svg">
<path d="M11.4964 13.2824C11.618 12.1878 11.6788 11.6405 11.7881 11.1742C12.5552 7.90201 15.2856 5.45814 18.6225 5.05715C19.098 5 19.6487 5 20.75 5V5C21.8513 5 22.402 5 22.8775 5.05715C26.2144 5.45814 28.9448 7.90201 29.7119 11.1742C29.8212 11.6405 29.882 12.1878 30.0036 13.2824L30.4233 17.0594C30.5566 18.2592 30.6232 18.8591 30.7769 19.4371C30.8669 19.7755 30.979 20.1077 31.1126 20.4314C31.3406 20.9843 31.6511 21.5019 32.2722 22.5371L33.9326 25.3043C34.7384 26.6473 35.1412 27.3187 34.854 27.826C34.5668 28.3333 33.7837 28.3333 32.2176 28.3333H9.28238C7.71627 28.3333 6.93322 28.3333 6.64599 27.826C6.35876 27.3187 6.76164 26.6473 7.56739 25.3043L9.22776 22.5371C9.84886 21.5019 10.1594 20.9843 10.3874 20.4314C10.521 20.1077 10.6331 19.7755 10.7231 19.4371C10.8768 18.8591 10.9434 18.2592 11.0767 17.0594L11.4964 13.2824Z" stroke="#FE554A" stroke-width="2"/>
<path d="M14.0834 28.3333C14.0834 29.2088 14.2559 30.0757 14.5909 30.8846C14.9259 31.6934 15.417 32.4283 16.036 33.0474C16.6551 33.6664 17.39 34.1575 18.1989 34.4925C19.0077 34.8276 19.8746 35 20.7501 35C21.6256 35 22.4925 34.8276 23.3013 34.4925C24.1101 34.1575 24.8451 33.6664 25.4641 33.0474C26.0832 32.4283 26.5742 31.6934 26.9093 30.8846C27.2443 30.0757 27.4167 29.2088 27.4167 28.3333" stroke="#FE554A" stroke-width="2" stroke-linecap="round"/>
</svg>
