<svg width="61" height="60" viewBox="0 0 61 60" fill="none" xmlns="http://www.w3.org/2000/svg">
<path d="M36.125 10H24.875C16.92 10 12.9426 10 10.4713 12.5105C8 15.021 8 19.0616 8 27.1429V32.8571C8 40.9384 8 44.979 10.4713 47.4895C12.9426 50 16.92 50 24.875 50H36.125C44.08 50 48.0574 50 50.5287 47.4895C53 44.979 53 40.9384 53 32.8571V27.1429C53 19.0616 53 15.021 50.5287 12.5105C48.0574 10 44.08 10 36.125 10Z" stroke="#FE554A" stroke-width="4"/>
<path d="M18 20H25.5" stroke="#FE554A" stroke-width="4" stroke-linecap="round"/>
<path d="M38 40V30H53V40H38Z" stroke="#FE554A" stroke-width="4"/>
</svg>
